<?xml version="1.0" encoding="UTF-8"?>
<svg width="131px" height="123px" viewBox="0 0 131 123" version="1.1" xmlns="http://www.w3.org/2000/svg" xmlns:xlink="http://www.w3.org/1999/xlink">
    <!-- Generator: Sketch 47 (45396) - http://www.bohemiancoding.com/sketch -->
    <title>ring_icon_/white</title>
    <desc>Created with Sketch.</desc>
    <defs></defs>
    <g id="Symbols" stroke="none" stroke-width="1" fill="none" fill-rule="evenodd">
        <g id="ring_icon_/white" fill="#FFFFFF">
            <path d="M21.728,34.5341 C21.728,34.5341 35.463,32.0101 45.437,31.5531 C45.437,31.5531 37.715,15.8521 37.706,2.1781 L19.298,14.1981 C19.298,14.1981 16.394,19.0641 21.728,34.5341" id="Fill-21"></path>
            <path d="M41.8677,0.0014 C41.8677,0.0014 40.1327,10.6504 49.5047,30.8494 C49.5047,30.8494 57.6157,19.7944 62.6657,14.4194 C62.6657,14.4194 50.8497,1.2684 41.8677,0.0014" id="Fill-22"></path>
            <path d="M54.3125,31.0683 C54.3125,31.0683 74.6955,2.3243 88.9255,0.0003 C88.9255,0.0003 90.4995,11.5243 81.1515,31.3283 C81.1515,31.3283 70.3835,30.8493 54.3125,31.0683" id="Fill-23"></path>
            <path d="M93.0977,2.1864 C93.0977,2.1864 93.2337,25.1974 67.7897,63.6944 C67.7897,63.6944 79.4727,80.4604 82.3597,83.3074 C82.3597,83.3074 117.9517,33.2214 111.5547,14.2804 L93.0977,2.1864 Z" id="Fill-24"></path>
            <path d="M111.5977,39.204 C111.5977,39.204 105.3697,53.525 101.2247,60.646 C101.2247,60.646 120.8837,63.777 130.0347,70.215 L130.0347,48.463 C130.0347,48.463 128.7097,43.455 111.5977,39.204" id="Fill-25"></path>
            <path d="M102.9463,65.017 C102.9463,65.017 122.4903,68.468 129.5863,74.894 C129.5863,74.894 125.0463,80.503 111.6003,83.329 C111.6003,83.329 106.3733,70.621 102.9463,65.305" id="Fill-26"></path>
            <path d="M98.6172,65.4428 C98.6172,65.4428 89.2622,80.9148 85.0362,86.4418 C85.0362,86.4418 100.5612,104.5638 111.7812,107.6878 C111.7812,107.6878 116.6112,97.4138 98.6172,65.4428" id="Fill-27"></path>
            <path d="M36.0147,63.811 C36.0147,63.811 57.5507,61.383 61.8827,61.97 C61.8827,61.97 80.7247,94.828 108.0927,110.61 L89.5717,122.543 C89.5717,122.545 72.8037,124.681 36.0147,63.811" id="Fill-28"></path>
            <path d="M48.0791,89.705 C48.0791,89.705 55.0341,99.381 62.6681,108.113 C62.6681,108.113 50.8251,121.5 41.2591,122.548 L22.6811,110.598 C22.6811,110.598 32.7761,107.254 48.0791,89.705" id="Fill-29"></path>
            <path d="M41.7119,90.7099 C41.7119,90.7099 28.8309,104.8579 19.2549,107.5989 C19.2549,107.5989 16.2729,103.7709 21.7309,87.9999 C21.7309,87.9999 28.9439,89.8839 41.7119,90.7099" id="Fill-30"></path>
            <path d="M31.7173,64.4223 C31.7173,64.4223 41.3583,79.9713 46.2833,86.9493 C46.2833,86.9493 11.4953,85.8893 1.2043,74.8903 C1.2043,74.8903 9.4783,67.5373 31.7173,64.4223" id="Fill-31"></path>
            <path d="M0.853,48.1445 L0.853,70.2245 C0.853,70.2245 16.866,57.9135 66.724,57.9415 C66.724,57.9415 78.852,37.9025 79.33,35.2605 C79.33,35.2605 15.128,31.6475 0.853,48.1445" id="Fill-32"></path>
        </g>
    </g>
</svg>